<svg width="238" height="47" viewBox="0 0 238 47" fill="none" xmlns="http://www.w3.org/2000/svg">
<path d="M54.7824 11.6224L50.6311 11.6508V11.6224H47.0768V34.3694H54.7824C63.3694 34.3694 66.5256 29.4504 66.5256 22.8822C66.5256 16.3424 63.3694 11.6224 54.7824 11.6224ZM54.7824 30.7868L50.6311 30.8152V15.205H54.7824C60.1564 15.205 62.9714 17.7072 62.9714 22.8822C62.9714 28.313 60.1564 30.7583 54.7824 30.7868ZM73.0136 27.5453H85.5529C85.7236 21.9723 82.4821 18.1053 77.6768 18.1053C73.0989 18.1053 69.3741 21.8301 69.3741 26.4364C69.3741 31.0711 73.0989 34.796 77.6768 34.796C80.577 34.796 83.3351 33.5164 84.8705 30.5877L82.4537 28.9386C81.231 30.5593 79.5818 31.2702 77.6768 31.2702C75.1462 31.2702 73.4401 29.7632 73.0136 27.5453ZM77.6768 21.5742C79.8093 21.5742 81.6575 22.8537 82.1409 25.1569H73.0421C73.5539 23.1381 75.2315 21.5742 77.6768 21.5742ZM108.298 28.4268L105.056 26.3511C103.834 29.5641 101.786 30.7583 98.6303 30.7015C95.0476 30.673 92.0621 28.4268 92.0621 22.8822C92.0621 17.5935 95.0476 15.2903 98.6303 15.2903C101.786 15.2903 103.947 16.3993 105.284 20.1525L108.468 18.0769C106.535 13.6412 103.237 11.6224 98.6303 11.6224C92.0336 11.6224 88.4225 16.3424 88.4225 22.8822C88.4225 29.4504 92.0336 34.3694 98.6303 34.3694C103.208 34.3694 106.506 32.2938 108.298 28.4268ZM119.378 34.796C123.984 34.796 127.425 30.9858 127.425 26.2658C127.425 21.6311 123.984 17.8209 119.378 17.8209C114.772 17.8209 111.303 21.6311 111.303 26.2658C111.303 30.9858 114.772 34.796 119.378 34.796ZM119.378 31.2702C116.648 31.2702 114.857 29.1376 114.857 26.2942C114.857 23.4793 116.648 21.3467 119.378 21.3467C122.136 21.3467 123.871 23.4793 123.871 26.2942C123.871 29.1376 122.136 31.2702 119.378 31.2702ZM133.652 23.5361H133.083L133.879 18.2475H130.268V34.3694H133.879V27.3747C133.879 23.5361 136.097 21.432 140.135 22.2282V18.2759C136.381 18.2759 134.334 19.1858 133.652 23.5361ZM145.487 27.5453H158.026C158.197 21.9723 154.955 18.1053 150.15 18.1053C145.572 18.1053 141.847 21.8301 141.847 26.4364C141.847 31.0711 145.572 34.796 150.15 34.796C153.05 34.796 155.808 33.5164 157.344 30.5877L154.927 28.9386C153.704 30.5593 152.055 31.2702 150.15 31.2702C147.619 31.2702 145.913 29.7632 145.487 27.5453ZM150.15 21.5742C152.282 21.5742 154.13 22.8537 154.614 25.1569H145.515C146.027 23.1381 147.704 21.5742 150.15 21.5742Z" fill="white"/>
<path d="M168.004 34.3694H177.472C182.818 34.3694 187.68 32.4928 187.68 27.3463C187.68 23.1949 184.24 21.8301 180.6 21.5458C183.472 21.2046 184.723 19.3564 184.723 16.9111C184.723 13.7549 182.249 11.6224 177.472 11.6224H168.004V34.3694ZM171.644 20.0104V15.2903H177.472C180.06 15.2903 181.055 16.2002 181.055 17.5366C181.055 18.9867 180.06 20.0104 177.472 20.0104H171.644ZM171.644 30.7299V23.5646H177.472C182.392 23.5646 183.614 25.1 183.614 27.0335C183.614 29.1376 182.505 30.7299 177.472 30.7299H171.644ZM194.163 27.5453H206.702C206.873 21.9723 203.631 18.1053 198.826 18.1053C194.248 18.1053 190.523 21.8301 190.523 26.4364C190.523 31.0711 194.248 34.796 198.826 34.796C201.726 34.796 204.484 33.5164 206.02 30.5877L203.603 28.9386C202.38 30.5593 200.731 31.2702 198.826 31.2702C196.295 31.2702 194.589 29.7632 194.163 27.5453ZM198.826 21.5742C200.959 21.5742 202.807 22.8537 203.29 25.1569H194.191C194.703 23.1381 196.381 21.5742 198.826 21.5742ZM215.115 26.0383V21.9154H220.262V18.2759H215.115V12.7597H211.561V18.2759H208.433V21.9154H211.561V26.0383C211.561 32.7203 211.931 34.3694 220.29 34.3694V30.8152C215.286 30.8152 215.115 30.7015 215.115 26.0383ZM229.377 18.1053C226.306 18.1053 224.145 19.527 222.382 22.0576L225.282 24.0195C226.363 22.541 227.472 21.7448 229.377 21.7448C231.993 21.7448 233.386 22.6831 233.755 24.7019H229.604C224.628 24.7019 221.984 26.6923 221.984 29.9622C221.984 32.9478 223.832 34.7675 227.813 34.7675C231.083 34.7675 233.244 32.9478 233.955 28.9101H234.381L233.812 34.3694H237.31V25.5834C237.31 20.6075 234.751 18.1053 229.377 18.1053ZM228.353 31.0996C226.448 31.0996 225.623 30.2465 225.623 29.1945C225.623 27.7444 226.874 27.0619 229.604 27.0619H233.642C233.187 29.6494 231.623 31.0996 228.353 31.0996Z" fill="#48A7FF"/>
<path fill-rule="evenodd" clip-rule="evenodd" d="M5.56253 22.7562H10.9065C11.5924 23.0138 12.2645 23.3658 12.926 23.7854H3.45438C4.11141 23.3457 4.82548 23.0028 5.56253 22.7562ZM2.45821 24.5704C2.11932 24.884 1.80553 25.2299 1.52338 25.6083H15.3441C14.9181 25.2444 14.489 24.8958 14.0559 24.5704H2.45821ZM16.226 26.3846H1.01661C0.831531 26.711 0.668092 27.0569 0.52937 27.4225H17.3502C16.9771 27.0724 16.6025 26.7246 16.226 26.3846ZM18.1837 28.2075H0.278451C0.191956 28.5367 0.124335 28.8798 0.0774 29.2366H19.2857C18.9188 28.8992 18.5517 28.5543 18.1837 28.2075ZM20.1569 30.0216H0.00918833C0.00309326 30.1608 0 30.3019 0 30.4448C0.0137906 30.6478 0.0310194 30.8498 0.0516286 31.0508H21.3885C20.9771 30.7274 20.5669 30.3818 20.1569 30.0216ZM22.4603 31.8358H0.149933C0.201246 32.1822 0.262647 32.5254 0.333827 32.865H22.6284V33.65H0.517341C0.60703 33.9973 0.707049 34.3405 0.81705 34.6791H22.6284V35.4641H1.09283C3.60953 42.117 10.0391 46.8475 17.5734 46.8475C27.3016 46.8475 35.1459 39.7081 35.1459 29.9799C35.1459 29.315 34.8901 27.8153 34.5373 27.1306C29.9645 34.5226 26.1378 34.3155 22.4603 31.8358Z" fill="#0F192E"/>
<path fill-rule="evenodd" clip-rule="evenodd" d="M29.6253 24.0912L24.2814 24.0912C23.5955 23.8337 22.9233 23.4817 22.2618 23.0621L31.7335 23.0621C31.0765 23.5018 30.3624 23.8447 29.6253 24.0912ZM32.7297 22.2771C33.0685 21.9635 33.3823 21.6175 33.6645 21.2392L19.8437 21.2392C20.2698 21.6031 20.6989 21.9517 21.132 22.2771L32.7297 22.2771ZM18.9618 20.4629L34.1713 20.4629C34.3563 20.1365 34.5198 19.7906 34.6585 19.425L17.8376 19.425C18.2108 19.775 18.5853 20.1229 18.9618 20.4629ZM17.0041 18.64L34.9094 18.64C34.9959 18.3108 35.0635 17.9677 35.1105 17.6108L15.9022 17.6108C16.2691 17.9483 16.6362 18.2932 17.0041 18.64ZM15.031 16.8259L35.1787 16.8259C35.1848 16.6867 35.1879 16.5456 35.1879 16.4027C35.1741 16.1997 35.1568 15.9977 35.1362 15.7967L13.7993 15.7967C14.2107 16.12 14.621 16.4656 15.031 16.8259ZM12.7276 15.0117L35.0379 15.0117C34.9866 14.6652 34.9252 14.3221 34.854 13.9825L12.5595 13.9825L12.5595 13.1975L34.6705 13.1975C34.5808 12.8502 34.4808 12.507 34.3708 12.1683L12.5595 12.1683L12.5595 11.3834L34.095 11.3834C31.5783 4.73045 25.1488 1.04144e-05 17.6144 1.10731e-05C7.88623 1.19235e-05 0.0419297 7.13935 0.0419305 16.8676C0.0419306 17.5325 0.297809 19.0322 0.650516 19.7169C5.22338 12.3249 9.05002 12.532 12.7276 15.0117Z" fill="#0F192E"/>
<circle cx="17.573" cy="21.764" r="5.48421" fill="url(#paint0_linear_379_751)"/>
<path d="M0.594719 27.2205C10.7986 43.715 17.3427 22.2827 26.7502 22.2827C30.6783 22.2827 35.1879 24.9867 35.1879 30.4448C34.5653 39.6077 26.9353 46.8474 17.6144 46.8474C7.88623 46.8474 0.0137939 39.5076 0.0137939 29.7793C0.0137939 29.1144 0.311172 27.9674 0.594719 27.2205Z" fill="url(#paint1_linear_379_751)"/>
<path d="M34.5931 19.627C24.3893 3.1325 17.8451 24.5648 8.43771 24.5648C4.50955 24.5648 7.393e-06 21.8608 6.91584e-06 16.4027C0.622588 7.23974 8.25255 2.71491e-05 17.5734 2.63342e-05C27.3016 2.54838e-05 35.1741 7.33992 35.1741 17.0681C35.1741 17.733 34.8767 18.8801 34.5931 19.627Z" fill="url(#paint2_linear_379_751)"/>
<defs>
<linearGradient id="paint0_linear_379_751" x1="11.1458" y1="14.2208" x2="23.5004" y2="27.7493" gradientUnits="userSpaceOnUse">
<stop stop-color="#02EDFF"/>
<stop offset="1" stop-color="#48A7FF"/>
</linearGradient>
<linearGradient id="paint1_linear_379_751" x1="17.6008" y1="22.2827" x2="17.6008" y2="46.8474" gradientUnits="userSpaceOnUse">
<stop stop-color="#1E242E"/>
<stop offset="1" stop-color="#0A0F1B"/>
</linearGradient>
<linearGradient id="paint2_linear_379_751" x1="17.587" y1="24.5648" x2="17.587" y2="2.6333e-05" gradientUnits="userSpaceOnUse">
<stop stop-color="#1E242E"/>
<stop offset="1" stop-color="#0A0F1B"/>
</linearGradient>
</defs>
</svg>
