<svg width="19" height="18" viewBox="0 0 19 18" fill="none" xmlns="http://www.w3.org/2000/svg">
<path d="M13 10.5C13.4333 10.5 13.7917 10.3583 14.075 10.075C14.3583 9.79167 14.5 9.43334 14.5 9C14.5 8.56667 14.3583 8.20834 14.075 7.925C13.7917 7.64167 13.4333 7.5 13 7.5C12.5667 7.5 12.2083 7.64167 11.925 7.925C11.6417 8.20834 11.5 8.56667 11.5 9C11.5 9.43334 11.6417 9.79167 11.925 10.075C12.2083 10.3583 12.5667 10.5 13 10.5ZM2 18C1.45 18 0.979002 17.804 0.587002 17.412C0.195002 17.02 -0.000664969 16.5493 1.69779e-06 16V2C1.69779e-06 1.45 0.196002 0.979002 0.588002 0.587002C0.980002 0.195002 1.45067 -0.000664969 2 1.69779e-06H16C16.55 1.69779e-06 17.021 0.196002 17.413 0.588002C17.805 0.980002 18.0007 1.45067 18 2V4.5H16V2H2V16H16V13.5H18V16C18 16.55 17.804 17.021 17.412 17.413C17.02 17.805 16.5493 18.0007 16 18H2ZM10 14C9.45 14 8.979 13.804 8.587 13.412C8.195 13.02 7.99934 12.5493 8 12V6C8 5.45 8.196 4.979 8.588 4.587C8.98 4.195 9.45067 3.99934 10 4H17C17.55 4 18.021 4.196 18.413 4.588C18.805 4.98 19.0007 5.45067 19 6V12C19 12.55 18.804 13.021 18.412 13.413C18.02 13.805 17.5493 14.0007 17 14H10ZM17 12V6H10V12H17Z" fill="white"/>
</svg>
